<svg viewBox="0 0 256 256" xmlns="http://www.w3.org/2000/svg"><path d="m.1 0h255.9v255.87h-255.9z" fill="#3b073c"/><g fill="#ed125f"><path d="m180.4 183.3a30.2 30.2 0 0 1 -30 26.6h-56.4a25.3 25.3 0 0 1 -25.1-28.4l11.2-88.7h28.6l-5.2 42.6-6.2 47.9z"/><path d="m181.2 73.8a47.8 47.8 0 0 0 -17.2-19.4c-8.9-5.6-21.9-8.5-38.9-8.5h-39.1l-3.3 26.6h40.7q35.3 0 35.2 27.7c0 11.4-3.1 20.1-9.4 26.1s-14.4 8.7-25.2 9l-3.2 25.4h.7c24.7 0 42.8-7.7 54.3-23.3 7.8-10.5 11.7-22.7 11.7-36.5a60.9 60.9 0 0 0 -6.3-27.1z"/></g></svg>