<svg id="Layer_1" data-name="Layer 1" xmlns="http://www.w3.org/2000/svg" viewBox="0 0 256 256"><rect x="0.1" width="255.9" height="255.87" fill="#3b073c"/><rect x="84.7" y="114.1" width="42.9" transform="translate(-20.1 205.5) rotate(-83)" fill="#ed125f"/><path d="M180.4,183.3a30.2,30.2,0,0,1-30,26.6H94a25.3,25.3,0,0,1-25.1-28.4L80.1,92.8h28.6l-5.2,42.6-6.2,47.9h83.1Z" fill="#ed125f"/><path d="M181.2,73.8A47.8,47.8,0,0,0,164,54.4c-8.9-5.6-21.9-8.5-38.9-8.5H86L82.7,72.5h40.7q35.3,0,35.2,27.7c0,11.4-3.1,20.1-9.4,26.1s-14.4,8.7-25.2,9l-3.2,25.4h.7c24.7,0,42.8-7.7,54.3-23.3,7.8-10.5,11.7-22.7,11.7-36.5A60.9,60.9,0,0,0,181.2,73.8Z" fill="#ed125f"/></svg>