<svg id="Layer_1" data-name="Layer 1" xmlns="http://www.w3.org/2000/svg" viewBox="0 0 196 196"><rect width="196" height="195.91" fill="#3b073c"/><rect x="64.8" y="87.4" width="32.8" transform="translate(-15.4 157.3) rotate(-83)" fill="#ed125f"/><path d="M138.2,140.4a23.3,23.3,0,0,1-23.1,20.4H71.9A19.4,19.4,0,0,1,52.7,139l8.6-67.9H83.2l-4,32.6-4.7,36.7h63.7Z" fill="#ed125f"/><path d="M138.8,56.5a35.9,35.9,0,0,0-13.2-14.8c-6.9-4.4-16.8-6.5-29.8-6.5h-30L63.3,55.5H94.4c18,0,27,7,27,21.1,0,8.7-2.4,15.4-7.2,20s-11,6.7-19.3,6.9l-2.4,19.5H93c19,0,32.8-6,41.6-17.9,6-8,8.9-17.3,8.9-27.9A46.9,46.9,0,0,0,138.8,56.5Z" fill="#ed125f"/></svg>