<svg viewBox="0 0 600 600" xmlns="http://www.w3.org/2000/svg"><g fill="#fdebed"><path d="m122.3 57.7-48.5-3.7-23.6 91.2h49.5z"/><path d="m95 151.4h-22.3l-2.6 20.8h44.1a23.6 23.6 0 0 0 23.5-20.8z"/><path d="m118.4 121.3h-22.4l-2.5 20.9h44a23.7 23.7 0 0 0 23.5-20.9z"/><path d="m141.6 91.1h-22.4l-2.6 20.8h44.1a23.6 23.6 0 0 0 23.5-20.8z"/></g><path d="m63.2 175.6a23.3 23.3 0 0 1 -23.1-26.2l12.4-98.2h33.6c13.9 0 24.8 2.4 32.3 7.2a40 40 0 0 1 14.7 16.5 51.3 51.3 0 0 1 5.2 22.7c0 11.6-3.2 21.9-9.7 30.6-9.7 13.1-24.9 19.7-45.3 19.7h-13.4l-3.7 27.7zm20.6-54.5c8.2 0 14.5-2.1 18.7-6.1s6.3-9.9 6.3-17.9-2.5-18.1-24.1-18.1h-6.3l-5.2 42.1z" fill="#2d3a81"/><path d="m86.1 54.7c13.3 0 23.4 2.2 30.4 6.6a37.1 37.1 0 0 1 13.5 15.2 48.4 48.4 0 0 1 4.8 21.2 47 47 0 0 1 -9 28.5q-13.5 18.2-42.5 18.2h-16.5l-3.6 27.7a19.8 19.8 0 0 1 -19.7-22.2l12-95.2zm-16.9 69.9h14.6c9.2 0 16.2-2.4 21.1-7.1s7.4-11.5 7.4-20.4q0-21.6-27.6-21.6h-9.4zm16.9-76.9h-36.7l-.8 6.1-12 95.2a26.8 26.8 0 0 0 26.6 30.1h6.1l.8-6.1 2.8-21.6h10.4c21.6 0 37.8-7.1 48.1-21.1a54 54 0 0 0 10.4-32.6 55.1 55.1 0 0 0 -5.5-24.3h-.1a44.1 44.1 0 0 0 -16-17.9c-8.2-5.2-19.3-7.7-34.1-7.7zm-4.6 34.8h3.2c20.6 0 20.6 9.8 20.6 14.6 0 7-1.7 12-5.2 15.4s-9.1 5.1-16.3 5.1h-6.7z" fill="#fff"/><path d="m308.5 57.7-48.5-3.7-23.7 91.2h49.6z" fill="#fef161"/><path d="m281.2 151.4h-22.3l-2.6 20.8h44.1a23.6 23.6 0 0 0 23.5-20.8z" fill="#fef161"/><path d="m304.5 121.3h-22.3l-2.6 20.9h44.1a23.7 23.7 0 0 0 23.5-20.8z" fill="#fef161"/><path d="m327.7 91.1h-22.3l-2.6 20.8h44.1a23.6 23.6 0 0 0 23.5-20.8z" fill="#fef161"/><path d="m249.4 175.6a23.4 23.4 0 0 1 -17.5-7.9 23 23 0 0 1 -5.6-18.3l12.4-98.2h33.6c13.9 0 24.7 2.4 32.3 7.2a40.7 40.7 0 0 1 14.7 16.5 51.3 51.3 0 0 1 5.2 22.7 50.5 50.5 0 0 1 -9.7 30.6c-9.7 13.1-24.9 19.7-45.3 19.7h-13.5l-3.6 27.7zm20.6-54.5c8.2 0 14.5-2.1 18.7-6.1s6.3-9.9 6.3-17.9-2.5-18.1-24.1-18.1h-6.3l-5.2 42.1z" fill="#f05564"/><path d="m272.3 54.7c13.3 0 23.4 2.2 30.4 6.6a37.1 37.1 0 0 1 13.5 15.2 48.4 48.4 0 0 1 4.8 21.2 47 47 0 0 1 -9 28.5q-13.5 18.2-42.5 18.2h-16.5l-3.6 27.7a19.8 19.8 0 0 1 -19.7-22.2l12-95.2zm-16.9 69.9h14.6c9.1 0 16.2-2.4 21.1-7.1s7.4-11.5 7.4-20.4q0-21.6-27.6-21.6h-9.4zm16.9-76.9h-36.7l-.8 6.1-12 95.2a26.4 26.4 0 0 0 6.5 21 26.7 26.7 0 0 0 20.1 9.1h6.1l.8-6.1 2.8-21.6h10.4c21.6 0 37.8-7.1 48.1-21.1a54 54 0 0 0 10.4-32.6 55.1 55.1 0 0 0 -5.5-24.3h-.1a44.1 44.1 0 0 0 -16-17.9c-8.2-5.2-19.3-7.7-34.1-7.7zm-4.6 34.8h3.2c20.6 0 20.6 9.8 20.6 14.6 0 7-1.7 12-5.2 15.4s-9.1 5.1-16.3 5.1h-6.7z" fill="#fff"/><path d="m494.7 57.7-48.5-3.7-23.7 91.2h49.6z" fill="#8fd0ba"/><path d="m467.4 151.4h-22.3l-2.6 20.8h44.1a23.6 23.6 0 0 0 23.5-20.8z" fill="#8fd0ba"/><path d="m490.7 121.3h-22.3l-2.6 20.9h44.1a23.7 23.7 0 0 0 23.5-20.8z" fill="#8fd0ba"/><path d="m513.9 91.1h-22.3l-2.6 20.8h44.1a23.6 23.6 0 0 0 23.5-20.8z" fill="#8fd0ba"/><path d="m435.5 175.6a23.3 23.3 0 0 1 -17.4-7.9 23 23 0 0 1 -5.6-18.3l12.3-98.2h33.7c13.9 0 24.7 2.4 32.2 7.2a40.3 40.3 0 0 1 14.8 16.5 51.3 51.3 0 0 1 5.2 22.7 50.5 50.5 0 0 1 -9.7 30.6c-9.7 13.1-24.9 19.7-45.3 19.7h-13.5l-3.6 27.7zm20.7-54.5c8.2 0 14.5-2.1 18.7-6.1s6.3-9.9 6.3-17.9-2.5-18.1-24.1-18.1h-6.3l-5.2 42.1z" fill="#243665"/><path d="m458.5 54.7c13.3 0 23.4 2.2 30.4 6.6a36.2 36.2 0 0 1 13.4 15.2 47.1 47.1 0 0 1 4.9 21.2 46.4 46.4 0 0 1 -9.1 28.5c-8.9 12.1-23.1 18.2-42.4 18.2h-16.5l-3.7 27.7a19.8 19.8 0 0 1 -19.6-22.2l12-95.2zm-16.9 69.9h14.6c9.1 0 16.2-2.4 21.1-7.1s7.4-11.5 7.4-20.4q0-21.6-27.6-21.6h-9.4zm16.9-76.9h-36.7l-.8 6.1-12 95.2a26.8 26.8 0 0 0 26.5 30.1h6.2l.8-6.1 2.8-21.6h10.4c21.6 0 37.7-7.1 48.1-21.1a54 54 0 0 0 10.4-32.6 55.2 55.2 0 0 0 -5.6-24.3 44.1 44.1 0 0 0 -16-17.9c-8.2-5.2-19.3-7.7-34.1-7.7zm-4.7 34.8h3.3c20.6 0 20.6 9.8 20.6 14.6 0 7-1.7 12-5.3 15.4s-9 5.1-16.2 5.1h-6.7z" fill="#fff"/><path d="m122.3 244.7-48.5-3.8-23.6 91.3h49.5z" fill="#fbad18"/><path d="m95 338.3h-22.3l-2.6 20.8h44.1a23.6 23.6 0 0 0 23.5-20.8z" fill="#fbad18"/><path d="m118.4 308.2h-22.4l-2.5 20.8h44a23.6 23.6 0 0 0 23.5-20.8z" fill="#fbad18"/><path d="m141.6 278h-22.4l-2.6 20.8h44.1a23.6 23.6 0 0 0 23.5-20.8z" fill="#fbad18"/><path d="m63.2 362.5a23.2 23.2 0 0 1 -23.1-26.1l12.4-98.3h33.6c13.9 0 24.8 2.4 32.3 7.2a40.7 40.7 0 0 1 14.7 16.5 51.8 51.8 0 0 1 5.2 22.8c0 11.5-3.2 21.8-9.7 30.6-9.7 13-24.9 19.7-45.3 19.7h-13.4l-3.7 27.6zm20.6-54.5c8.2 0 14.5-2 18.7-6.1s6.3-9.9 6.3-17.9-2.5-18.1-24.1-18.1h-6.3l-5.2 42.1z" fill="#00465e"/><path d="m86.1 241.6c13.3 0 23.4 2.2 30.4 6.7a36.8 36.8 0 0 1 13.5 15.1 48.7 48.7 0 0 1 4.8 21.2 47 47 0 0 1 -9 28.5q-13.5 18.3-42.5 18.3h-16.5l-3.6 27.6a19.8 19.8 0 0 1 -19.7-22.2l12-95.2zm-16.9 69.9h14.6c9.2 0 16.2-2.3 21.1-7s7.4-11.6 7.4-20.5q0-21.6-27.6-21.6h-9.4zm16.9-76.9h-36.7l-.8 6.1-12 95.2a26.7 26.7 0 0 0 26.6 30.1h6.1l.8-6.1 2.8-21.5h10.4c21.6 0 37.8-7.1 48.1-21.1a54 54 0 0 0 10.4-32.7 55.4 55.4 0 0 0 -5.5-24.3h-.1a43.8 43.8 0 0 0 -16-18c-8.2-5.2-19.3-7.7-34.1-7.7zm-4.6 34.8h3.2c20.6 0 20.6 9.9 20.6 14.6 0 7-1.7 12-5.2 15.4s-9.1 5.1-16.3 5.1h-6.7z" fill="#fff"/><path d="m308.5 244.7-48.5-3.8-23.7 91.3h49.6z" fill="#ed125f"/><path d="m281.2 338.3h-22.3l-2.6 20.8h44.1a23.6 23.6 0 0 0 23.5-20.8z" fill="#ed125f" stroke="#fff" stroke-miterlimit="10"/><path d="m304.5 308.2h-22.3l-2.6 20.8h44.1a23.6 23.6 0 0 0 23.5-20.8z" fill="#ed125f" stroke="#fff" stroke-miterlimit="10"/><path d="m327.7 278h-22.3l-2.6 20.8h44.1a23.6 23.6 0 0 0 23.5-20.8z" fill="#ed125f" stroke="#fff" stroke-miterlimit="10"/><path d="m249.4 362.5a23.4 23.4 0 0 1 -17.5-7.9 22.9 22.9 0 0 1 -5.6-18.2l12.4-98.3h33.6c13.9 0 24.7 2.4 32.3 7.2a41.4 41.4 0 0 1 14.7 16.5 51.8 51.8 0 0 1 5.2 22.8 50.9 50.9 0 0 1 -9.7 30.6c-9.7 13-24.9 19.7-45.3 19.7h-13.5l-3.6 27.6zm20.6-54.5c8.2 0 14.5-2 18.7-6.1s6.3-9.9 6.3-17.9-2.5-18.1-24.1-18.1h-6.3l-5.2 42.1z" fill="#3b073c"/><path d="m272.3 241.6c13.3 0 23.4 2.2 30.4 6.7a36.8 36.8 0 0 1 13.5 15.1 48.7 48.7 0 0 1 4.8 21.2 47 47 0 0 1 -9 28.5q-13.5 18.3-42.5 18.3h-16.5l-3.6 27.6a19.8 19.8 0 0 1 -19.7-22.2l12-95.2zm-16.9 69.9h14.6c9.1 0 16.2-2.3 21.1-7s7.4-11.6 7.4-20.5q0-21.6-27.6-21.6h-9.4zm16.9-76.9h-36.7l-.8 6.1-12 95.2a26.7 26.7 0 0 0 26.6 30.1h6.1l.8-6.1 2.8-21.5h10.4c21.6 0 37.8-7.1 48.1-21.1a54 54 0 0 0 10.4-32.7 55.4 55.4 0 0 0 -5.5-24.3h-.1a43.8 43.8 0 0 0 -16-18c-8.2-5.2-19.3-7.7-34.1-7.7zm-4.6 34.8h3.2c20.6 0 20.6 9.9 20.6 14.6 0 7-1.7 12-5.2 15.4s-9.1 5.1-16.3 5.1h-6.7z" fill="#fff"/><path d="m120.8 432.3-48.5-3.8-23.7 91.3h49.6z" fill="#ef4030"/><path d="m93.5 526h-22.3l-2.6 20.8h44.1a23.7 23.7 0 0 0 23.5-20.8z" fill="#ef4030"/><path d="m116.8 495.8h-22.3l-2.6 20.8h44.1a23.6 23.6 0 0 0 23.5-20.8z" fill="#ef4030"/><path d="m140 465.7h-22.3l-2.6 20.8h44.1a23.6 23.6 0 0 0 23.5-20.8z" fill="#ef4030"/><path d="m61.6 550.1a23.2 23.2 0 0 1 -17.4-7.8 23.5 23.5 0 0 1 -5.7-18.3l12.4-98.2h33.7c13.9 0 24.7 2.4 32.2 7.1a40.5 40.5 0 0 1 14.8 16.6 51.3 51.3 0 0 1 5.2 22.7 50.7 50.7 0 0 1 -9.7 30.6c-9.7 13.1-24.9 19.7-45.3 19.7h-13.5l-3.6 27.6zm20.6-54.4c8.3 0 14.5-2.1 18.8-6.1s6.3-10 6.3-18-2.5-18-24.1-18h-6.4l-5.1 42.1z" fill="#201b1b"/><path d="m84.6 429.3c13.3 0 23.4 2.2 30.4 6.6a36.5 36.5 0 0 1 13.4 15.1 47.4 47.4 0 0 1 4.9 21.2 46.4 46.4 0 0 1 -9.1 28.5c-8.9 12.2-23.1 18.3-42.4 18.3h-16.5l-3.7 27.6a19.8 19.8 0 0 1 -19.6-22.1l12-95.2zm-16.9 69.9h14.5c9.2 0 16.3-2.4 21.2-7.1s7.4-11.5 7.4-20.5c0-14.3-9.2-21.5-27.6-21.5h-9.4zm16.9-76.9h-36.7l-.8 6.1-12 95.2a26.4 26.4 0 0 0 6.5 21 26.9 26.9 0 0 0 20 9h6.2l.8-6 2.8-21.6h10.4c21.6 0 37.7-7.1 48.1-21.1a54 54 0 0 0 10.4-32.7 55 55 0 0 0 -5.6-24.2 43.5 43.5 0 0 0 -16-17.9c-8.2-5.2-19.3-7.7-34.1-7.7zm-4.7 34.8h3.3c20.6 0 20.6 9.8 20.6 14.5 0 7-1.7 12.1-5.3 15.5s-9 5.1-16.3 5.1h-6.6z" fill="#fff"/><path d="m496 244.7-48.5-3.8-23.7 91.3h49.6z" fill="#f8961d"/><path d="m468.7 338.3h-22.3l-2.6 20.8h44.1a23.6 23.6 0 0 0 23.5-20.8z" fill="#f8961d"/><path d="m492 308.2h-22.3l-2.6 20.8h44.1a23.6 23.6 0 0 0 23.5-20.8z" fill="#f8961d"/><path d="m515.2 278h-22.3l-2.6 20.8h44.1a23.6 23.6 0 0 0 23.5-20.8z" fill="#f8961d"/><path d="m436.9 362.5a23.2 23.2 0 0 1 -23.1-26.1l12.4-98.3h33.6c13.9 0 24.8 2.4 32.3 7.2a40.7 40.7 0 0 1 14.7 16.5 51.8 51.8 0 0 1 5.2 22.8c0 11.5-3.2 21.8-9.7 30.6-9.7 13-24.9 19.7-45.3 19.7h-13.5l-3.6 27.6zm20.6-54.5c8.2 0 14.5-2 18.7-6.1s6.3-9.9 6.3-17.9-2.5-18.1-24.1-18.1h-6.3l-5.2 42.1z" fill="#2f2f84"/><path d="m459.8 241.6c13.3 0 23.4 2.2 30.4 6.7a36.8 36.8 0 0 1 13.5 15.1 48.7 48.7 0 0 1 4.8 21.2 47 47 0 0 1 -9 28.5q-13.5 18.3-42.5 18.3h-16.5l-3.6 27.6a19.8 19.8 0 0 1 -19.7-22.2l12-95.2zm-16.9 69.9h14.6c9.1 0 16.2-2.3 21.1-7s7.4-11.6 7.4-20.5q0-21.6-27.6-21.6h-9.4zm16.9-76.9h-36.7l-.8 6.1-12 95.2a26.7 26.7 0 0 0 26.6 30.1h6.1l.8-6.1 2.8-21.5h10.4c21.6 0 37.8-7.1 48.1-21.1a54 54 0 0 0 10.4-32.7 55.4 55.4 0 0 0 -5.5-24.3h-.1a43.8 43.8 0 0 0 -16-18c-8.2-5.2-19.3-7.7-34.1-7.7zm-4.6 34.8h3.2c20.6 0 20.6 9.9 20.6 14.6 0 7-1.7 12-5.2 15.4s-9.1 5.1-16.3 5.1h-6.7z" fill="#fff"/><path d="m308.5 431.6-48.5-3.8-23.7 91.3h49.6z" fill="#f9d342"/><path d="m281.2 525.2h-22.3l-2.6 20.8h44.1a23.6 23.6 0 0 0 23.5-20.8z" fill="#f9d342"/><path d="m304.5 495.1h-22.3l-2.6 20.8h44.1a23.6 23.6 0 0 0 23.5-20.8z" fill="#f9d342"/><path d="m327.7 465h-22.3l-2.6 20.8h44.1a23.6 23.6 0 0 0 23.5-20.8z" fill="#f9d342"/><path d="m249.4 549.4a23.1 23.1 0 0 1 -23.1-26.1l12.4-98.3h33.6c13.9 0 24.7 2.5 32.3 7.2a41 41 0 0 1 14.7 16.6 52.7 52.7 0 0 1 -4.5 53.3c-9.7 13.1-24.9 19.7-45.3 19.7h-13.5l-3.6 27.6zm20.6-54.4c8.2 0 14.5-2.1 18.7-6.1s6.3-10 6.3-18-2.5-18.1-24.1-18.1h-6.3l-5.2 42.2z" fill="#2f2e2a"/><path d="m272.3 428.5c13.3 0 23.4 2.3 30.4 6.7a37.4 37.4 0 0 1 13.5 15.1 48.7 48.7 0 0 1 4.8 21.2 47 47 0 0 1 -9 28.5q-13.5 18.3-42.5 18.3h-16.5l-3.6 27.6a19.8 19.8 0 0 1 -19.7-22.2l12-95.2zm-16.9 70h14.6c9.1 0 16.2-2.4 21.1-7.1s7.4-11.6 7.4-20.5q0-21.6-27.6-21.6h-9.4zm16.9-77h-36.7l-.8 6.2-12 95.2a26.5 26.5 0 0 0 6.5 21 27 27 0 0 0 20.1 9h6.1l.8-6.1 2.8-21.5h10.4c21.6 0 37.8-7.1 48.1-21.1a54 54 0 0 0 10.4-32.7 54.9 54.9 0 0 0 -5.5-24.2h-.1a42.9 42.9 0 0 0 -16-17.9c-8.2-5.2-19.3-7.8-34.1-7.8zm-4.6 34.8h3.2c20.6 0 20.6 9.9 20.6 14.6 0 7-1.7 12.1-5.2 15.4s-9.1 5.2-16.3 5.2h-6.7z" fill="#fff"/><path d="m494.5 432.3-48.5-3.8-23.7 91.3h49.6z" fill="#e1c5b3"/><path d="m467.2 526h-22.3l-2.6 20.8h44.1a23.7 23.7 0 0 0 23.5-20.8z" fill="#e1c5b3"/><path d="m490.5 495.8h-22.3l-2.6 20.8h44.1a23.6 23.6 0 0 0 23.5-20.8z" fill="#e1c5b3"/><path d="m513.7 465.7h-22.3l-2.6 20.8h44.1a23.6 23.6 0 0 0 23.5-20.8z" fill="#e1c5b3"/><path d="m435.3 550.1a23.2 23.2 0 0 1 -17.4-7.8 23.5 23.5 0 0 1 -5.7-18.3l12.4-98.2h33.7c13.9 0 24.7 2.4 32.2 7.1a40.5 40.5 0 0 1 14.8 16.6 51.3 51.3 0 0 1 5.2 22.7 50.7 50.7 0 0 1 -9.7 30.6c-9.7 13.1-24.9 19.7-45.3 19.7h-13.5l-3.6 27.6zm20.6-54.4c8.2 0 14.5-2.1 18.8-6.1s6.3-10 6.3-18-2.5-18-24.1-18h-6.4l-5.1 42.1z" fill="#262122"/><path d="m458.3 429.3c13.3 0 23.4 2.2 30.4 6.6a36.5 36.5 0 0 1 13.4 15.1 47.4 47.4 0 0 1 4.9 21.2 46.4 46.4 0 0 1 -9.1 28.5c-8.9 12.2-23.1 18.3-42.4 18.3h-16.5l-3.7 27.6a19.8 19.8 0 0 1 -19.6-22.1l12-95.2zm-16.9 69.9h14.5c9.2 0 16.3-2.4 21.2-7.1s7.4-11.5 7.4-20.5c0-14.3-9.2-21.5-27.6-21.5h-9.4zm16.9-76.9h-36.7l-.8 6.1-12 95.2a26.4 26.4 0 0 0 6.5 21 26.9 26.9 0 0 0 20 9h6.2l.8-6 2.8-21.6h10.4c21.5 0 37.7-7.1 48.1-21.1a54 54 0 0 0 10.4-32.7 55 55 0 0 0 -5.6-24.2 43.5 43.5 0 0 0 -16-17.9c-8.2-5.2-19.4-7.7-34.1-7.7zm-4.7 34.8h3.3c20.6 0 20.6 9.8 20.6 14.5 0 7-1.7 12.1-5.3 15.5s-9 5.1-16.3 5.1h-6.6z" fill="#fff"/></svg>